<svg xmlns="http://www.w3.org/2000/svg" viewBox="0 0 71.03 19.31"><defs><style>.cls-1,.cls-2,.cls-4{fill:#2c3135;}.cls-1,.cls-4{stroke:#2c3135;}.cls-1,.cls-3,.cls-4,.cls-5{stroke-miterlimit:10;}.cls-1,.cls-3{stroke-width:0.35px;}.cls-1,.cls-2,.cls-3,.cls-4,.cls-5{fill-rule:evenodd;}.cls-3,.cls-5{fill:#ef3824;stroke:#ef3824;}.cls-4,.cls-5{stroke-width:0.75px;}</style></defs><title>Asset 1</title><g id="Layer_2" data-name="Layer 2"><g id="Layer_10" data-name="Layer 10"><polygon class="cls-1" points="16.2 4.75 16.2 3.68 8.5 3.68 8.5 4.76 16.2 4.75"/><path class="cls-1" d="M16.2,7.14H8.5V8.22h6.63A1.07,1.07,0,0,0,16.2,7.14Z"/><path class="cls-1" d="M40.32,8.22h0a2.18,2.18,0,0,0,1.93-1.17l3.11-5.91,3.11,5.91A2.18,2.18,0,0,0,50.4,8.22h.15l-4.44-8H44.68Z"/><path class="cls-1" d="M26.64,1.31H20.38V7.1h6.26V4.77H24.42a1,1,0,0,1-1-1H28V6.33a2.13,2.13,0,0,1-.39,1.49,2.09,2.09,0,0,1-1.49.4H20.93a2.11,2.11,0,0,1-1.49-.4,2.17,2.17,0,0,1-.39-1.49V2.12A2.15,2.15,0,0,1,19.44.63a2.06,2.06,0,0,1,1.49-.4h5.16a2.14,2.14,0,0,1,1.48.39A2,2,0,0,1,28,2v.19H26.64V1.31Z"/><polygon class="cls-1" points="3.51 9.78 3.69 10.12 67.45 10.12 67.63 9.78 3.51 9.78"/><path class="cls-1" d="M52.78,8.22V7.67L58.7,1.31H54.37A1.08,1.08,0,0,1,53.29.23h7.54V.68l-6,6.42h6a1.12,1.12,0,0,1-1.12,1.12Z"/><path class="cls-1" d="M30.82,8.22V1.56A1.33,1.33,0,0,1,32.15.23h0V7.1h6.06a1.12,1.12,0,0,1-1.12,1.12Z"/><path class="cls-2" d="M71,1.3V3.88l-1.63,3v-2H64.33V8.34H62.68V1.39A1.63,1.63,0,0,1,64.33,0V3.2h5V0h0C70.29,0,71,.39,71,1.3Z"/><path class="cls-3" d="M3.61,8.19h.61L2.5,5.1H4.86a1.86,1.86,0,0,0,1.28-.36,1.56,1.56,0,0,0,.39-1.17V1.8A1.57,1.57,0,0,0,6.14.62,1.86,1.86,0,0,0,4.86.26H.17v1H3.34A6.61,6.61,0,0,1,5,1.47a.88.88,0,0,1,.19.64V3.26A.88.88,0,0,1,5,3.89a6.69,6.69,0,0,1-1.68.18H.49L2.22,7.34A1.58,1.58,0,0,0,3.61,8.19Z"/><polygon class="cls-4" points="12.36 12.88 7.82 12.88 7.21 11.62 11.73 11.61 12.36 12.88"/><polygon class="cls-4" points="54.55 18.93 58.15 11.61 56.85 11.61 53.96 17.47 17.2 17.47 14.33 11.61 13.02 11.61 16.62 18.93 54.55 18.93"/><polygon class="cls-4" points="13.75 12.59 13.75 12.59 13.75 12.59 13.75 12.59 13.75 12.59"/><polygon class="cls-4" points="19.09 16 16.93 11.61 15.63 11.61 17.78 16 19.09 16"/><path class="cls-5" d="M66.57,11.61l-.7,1.44-2.28,4.61a2.17,2.17,0,0,1-1.92,1.27l3.6-7.32Z"/><polygon class="cls-4" points="58.84 12.88 63.37 12.88 63.99 11.62 59.46 11.61 58.84 12.88"/><path class="cls-4" d="M4.61,11.61l.7,1.44,2.28,4.61a2.17,2.17,0,0,0,1.92,1.27L5.9,11.61Z"/></g></g></svg>