<svg id="Layer_1" data-name="Layer 1" xmlns="http://www.w3.org/2000/svg" viewBox="0 0 20 20"><defs><style>.cls-1{fill:#333;}</style></defs><title>Artboard 1</title><path class="cls-1" d="M17.78,14.28a2,2,0,0,1,.52,1.34,1.9,1.9,0,0,1-.5,1.31,1.66,1.66,0,0,1-1.28.54H12.37a2.49,2.49,0,0,1-.68,1.77,2.34,2.34,0,0,1-3.38,0,2.49,2.49,0,0,1-.68-1.77H3.48a1.66,1.66,0,0,1-1.28-.54,1.92,1.92,0,0,1,.06-2.65,5.32,5.32,0,0,0,.81-1,6.19,6.19,0,0,0,.7-1.83,15.05,15.05,0,0,0,.3-3.27,6.4,6.4,0,0,1,.65-2.84A6.16,6.16,0,0,1,6.5,3.09,5.64,5.64,0,0,1,9,2a1.15,1.15,0,0,1-.23-.7A1.2,1.2,0,0,1,9.17.41a1.12,1.12,0,0,1,1.66,0,1.2,1.2,0,0,1,.36.87A1.15,1.15,0,0,1,11,2,5.64,5.64,0,0,1,13.5,3.09a6.16,6.16,0,0,1,1.78,2.2,6.4,6.4,0,0,1,.65,2.84,15.05,15.05,0,0,0,.3,3.27,6.19,6.19,0,0,0,.7,1.83A5,5,0,0,0,17.78,14.28ZM10,18.41a.81.81,0,0,1-.63-.28.93.93,0,0,1-.26-.66H8.52a1.57,1.57,0,0,0,.42,1.11A1.41,1.41,0,0,0,10,19a.26.26,0,0,0,.2-.1.26.26,0,0,0,.1-.21.3.3,0,0,0-.1-.22A.28.28,0,0,0,10,18.41Z"/></svg>