<svg id="Layer_1" data-name="Layer 1" xmlns="http://www.w3.org/2000/svg" viewBox="0 0 20 20"><defs><style>.cls-1{fill:#333;}</style></defs><title>r-bell</title><path class="cls-1" d="M17.73,14.25a2,2,0,0,1,.52,1.34,1.85,1.85,0,0,1-.5,1.29,1.62,1.62,0,0,1-1.27.55H12.36a2.45,2.45,0,0,1-.69,1.76A2.23,2.23,0,0,1,10,19.9a2.27,2.27,0,0,1-1.68-.71,2.49,2.49,0,0,1-.68-1.76H3.52a1.62,1.62,0,0,1-1.27-.55,1.8,1.8,0,0,1-.5-1.29,1.89,1.89,0,0,1,.55-1.34,5,5,0,0,0,.81-1,6.23,6.23,0,0,0,.7-1.82,14.85,14.85,0,0,0,.3-3.25,6.33,6.33,0,0,1,.64-2.82A6.09,6.09,0,0,1,6.52,3.14,5.51,5.51,0,0,1,9,2a1.14,1.14,0,0,1-.22-.69A1.22,1.22,0,0,1,9.17.47,1.09,1.09,0,0,1,10,.1a1.1,1.1,0,0,1,.83.37A1.23,1.23,0,0,1,11,2a5.51,5.51,0,0,1,2.52,1.11,6.09,6.09,0,0,1,1.77,2.18,6.33,6.33,0,0,1,.64,2.82,14.85,14.85,0,0,0,.3,3.25,6.23,6.23,0,0,0,.7,1.82A4.65,4.65,0,0,0,17.73,14.25ZM10,18.35a.83.83,0,0,1-.63-.27.92.92,0,0,1-.26-.65H8.53A1.56,1.56,0,0,0,9,18.53,1.4,1.4,0,0,0,10,19a.28.28,0,0,0,.2-.09.33.33,0,0,0,.09-.22.3.3,0,0,0-.09-.21A.3.3,0,0,0,10,18.35Z"/></svg>