<svg id="Layer_1" data-name="Layer 1" xmlns="http://www.w3.org/2000/svg" viewBox="0 0 20 20"><title>r-create-service-center</title><path d="M16,10.85a.66.66,0,0,0-.23,0l-.46.14-.58-1.58A2.07,2.07,0,0,0,13,8.13H7A2.07,2.07,0,0,0,5.22,9.45L4.64,11l-.45-.13a.66.66,0,0,0-.23,0,.79.79,0,0,0-.74.87v0a1,1,0,0,0,.77,1,8.93,8.93,0,0,0-.43,2.51v3.28a1,1,0,0,0,.95,1.07h.55a1,1,0,0,0,1-1.07V17.9h8v.68a1,1,0,0,0,1,1.07h.55a1,1,0,0,0,.95-1.07V15.3A8.93,8.93,0,0,0,16,12.79a1,1,0,0,0,.78-1v0A.79.79,0,0,0,16,10.85ZM5.25,12.12l.93-2.51a1.24,1.24,0,0,1,1.05-.79h5.53a1.24,1.24,0,0,1,1.05.79l.93,2.51c.16.44-.06.79-.48.79H5.73C5.31,12.91,5.09,12.56,5.25,12.12Zm2.32,3.77a.41.41,0,0,1-.39.43H5.35A.41.41,0,0,1,5,15.89V15a.41.41,0,0,1,.39-.43H7.18a.41.41,0,0,1,.39.43v.87Zm7.44,0a.41.41,0,0,1-.39.43H12.79a.41.41,0,0,1-.38-.43V15a.41.41,0,0,1,.38-.43h1.83A.41.41,0,0,1,15,15Z"/><path d="M18,0H2A1.89,1.89,0,0,0,.25,2V18.89a1,1,0,0,0,1,1.11,1.05,1.05,0,0,0,1-1.11L2.17,7H17.81V18.89a1,1,0,1,0,1.94,0V2A1.89,1.89,0,0,0,18,0ZM13,3.87a.5.5,0,0,1-.37.15H10.53V6.16a.46.46,0,0,1-.16.36.53.53,0,0,1-.74,0,.46.46,0,0,1-.16-.36V4H7.34A.5.5,0,0,1,7,3.87a.57.57,0,0,1-.14-.37A.57.57,0,0,1,7,3.12.5.5,0,0,1,7.34,3H9.47V.83A.46.46,0,0,1,9.63.47a.53.53,0,0,1,.74,0,.46.46,0,0,1,.16.36V3h2.13a.5.5,0,0,1,.37.15.53.53,0,0,1,.14.38A.52.52,0,0,1,13,3.87Z"/></svg>