<svg id="Layer_1" data-name="Layer 1" xmlns="http://www.w3.org/2000/svg" viewBox="0 0 20 20"><title>fixed-service-center</title><path d="M0,10A10,10,0,1,1,10,20,10,10,0,0,1,0,10Zm.5,0A9.5,9.5,0,1,0,10,.5,9.51,9.51,0,0,0,.5,10Z"/><path d="M5.56,17.35H4.74V17c0-2.59,0-5.18,0-7.77,0-.42-.07-.74-.53-.89L3.09,9.53,2.56,8.9,10,1.46l7.46,7.46-.57.52L15.65,8.16a1.12,1.12,0,0,0-.63,1c0,2.59,0,5.19,0,7.79v.36H14.2c0-.1,0-.2,0-.29,0-1.84,0-3.67,0-5.5,0-.8,0-1.6,0-2.4A.72.72,0,0,0,14,8.73c-.27-.35-.56-.69-.85-1a.54.54,0,0,0-.35-.16L7,7.54a.47.47,0,0,0-.46.24A4.31,4.31,0,0,1,6,8.4a1.71,1.71,0,0,0-.46,1.38c0,2.48,0,5,0,7.42A1.25,1.25,0,0,1,5.56,17.35ZM14.23,6.87A3,3,0,0,0,14,6.61a9.37,9.37,0,0,0-.71-.7.74.74,0,0,0-.43-.18H7.05a.49.49,0,0,0-.25,0L5.72,6.87ZM7.57,5h4.82L10,2.65Zm-2,3.39.66-.86H5.59Zm7.9-.87.67.77V7.56Zm1.57.07v.53l.28-.24Z"/><path d="M13.68,17.35H6V15.14h7.67Z"/><path d="M8.22,9.63A1.62,1.62,0,0,1,9.55,8.06a1.68,1.68,0,0,1,1.91,1.16,1.26,1.26,0,0,1-1.14,1.68,2.4,2.4,0,0,1-1.4-.18A1.1,1.1,0,0,1,8.22,9.63Z"/></svg>