<svg id="Layer_1" data-name="Layer 1" xmlns="http://www.w3.org/2000/svg" viewBox="0 0 20 20"><title>r-list-view</title><path d="M5.15,4.88a.31.31,0,0,1-.35.35H2.28a.32.32,0,0,1-.36-.35V2.35A.32.32,0,0,1,2.28,2H4.8a.31.31,0,0,1,.35.35Zm0,6.46a.31.31,0,0,1-.35.35H2.28a.32.32,0,0,1-.36-.35V8.81a.32.32,0,0,1,.36-.35H4.8a.31.31,0,0,1,.35.35Zm0,6.46a.31.31,0,0,1-.35.35H2.28c-.24,0-.36-.11-.36-.35V15.28a.32.32,0,0,1,.36-.36H4.8a.32.32,0,0,1,.35.36ZM11.61,4.88a.31.31,0,0,1-.35.35H8.74a.32.32,0,0,1-.36-.35V2.35A.32.32,0,0,1,8.74,2h2.52a.31.31,0,0,1,.35.35Zm0,6.46a.31.31,0,0,1-.35.35H8.74a.32.32,0,0,1-.36-.35V8.81a.32.32,0,0,1,.36-.35h2.52a.31.31,0,0,1,.35.35Zm0,6.46a.3.3,0,0,1-.35.35H8.74c-.24,0-.36-.11-.36-.35V15.28a.32.32,0,0,1,.36-.36h2.52c.24,0,.35.12.35.36ZM18.08,4.88a.32.32,0,0,1-.36.35H15.2a.31.31,0,0,1-.35-.35V2.35A.31.31,0,0,1,15.2,2h2.52a.32.32,0,0,1,.36.35Zm0,6.46a.32.32,0,0,1-.36.35H15.2a.31.31,0,0,1-.35-.35V8.81a.31.31,0,0,1,.35-.35h2.52a.32.32,0,0,1,.36.35Zm0,6.46c0,.24-.12.35-.36.35H15.2a.3.3,0,0,1-.35-.35V15.28c0-.24.11-.36.35-.36h2.52a.32.32,0,0,1,.36.36Z"/></svg>