<svg id="Layer_1" data-name="Layer 1" xmlns="http://www.w3.org/2000/svg" viewBox="0 0 20 5.35"><defs><style>.cls-1,.cls-2,.cls-3,.cls-5{fill:#2c3135;}.cls-1,.cls-2,.cls-5{stroke:#2b3135;}.cls-1,.cls-2,.cls-4,.cls-5,.cls-6{stroke-miterlimit:10;}.cls-1,.cls-2,.cls-4{stroke-width:0.1px;}.cls-1,.cls-3,.cls-4,.cls-5,.cls-6{fill-rule:evenodd;}.cls-4,.cls-6{fill:#ed3724;stroke:#ed3724;}.cls-5,.cls-6{stroke-width:0.21px;}</style></defs><title>r-logo-text</title><path class="cls-1" d="M4.93,2H2.8v.29H4.64A.29.29,0,0,0,4.93,2Z"/><path class="cls-1" d="M4.73.39h0A.29.29,0,0,0,4.43.1H2.6V.4Z"/><rect class="cls-2" x="2.6" y="1.01" width="2.13" height="0.3"/><path class="cls-1" d="M11.41,2.26h0a.59.59,0,0,0,.53-.32L12.8.3l.86,1.64a.61.61,0,0,0,.54.32h0L13,.05h-.39Z"/><path class="cls-1" d="M7.62.35H5.89V2H7.62V1.31H7A.29.29,0,0,1,6.72,1H8v.72a.59.59,0,0,1-.11.41.55.55,0,0,1-.41.11H6a.59.59,0,0,1-.41-.11.55.55,0,0,1-.11-.41V.57A.55.55,0,0,1,5.63.16.59.59,0,0,1,6,.05H7.47a.61.61,0,0,1,.41.11A.55.55,0,0,1,8,.55v0H7.62V.35Z"/><path class="cls-1" d="M14.86,2.26V2.11L16.5.35H15.3a.29.29,0,0,1-.3-.3h2.09V.18L15.42,2h1.67a.31.31,0,0,1-.31.31Z"/><path class="cls-1" d="M8.78,2.26V.42A.36.36,0,0,1,9.15.05h0V2h1.67a.31.31,0,0,1-.31.31Z"/><path class="cls-3" d="M19.91.36v.72l-.45.81V1.33h-1.4v1H17.6V.39A.45.45,0,0,1,18.06,0V.89h1.39V0h0C19.71,0,19.91.11,19.91.36Z"/><path class="cls-4" d="M1.25,2.25h.16L.94,1.4h.65A.59.59,0,0,0,2,1.3.45.45,0,0,0,2.05,1V.48A.42.42,0,0,0,2,.16a.53.53,0,0,0-.36-.1H.29V.34h.88a2,2,0,0,1,.46,0,.24.24,0,0,1,.05.18V.89c0,.08,0,.14-.05.17a1.54,1.54,0,0,1-.46.05H.38L.86,2A.43.43,0,0,0,1.25,2.25Z"/><polygon class="cls-1" points="1.23 2.72 1.27 2.81 18.93 2.81 18.98 2.72 1.23 2.72"/><polygon class="cls-5" points="3.67 3.57 2.42 3.57 2.25 3.23 3.5 3.22 3.67 3.57"/><polygon class="cls-5" points="15.36 5.25 16.35 3.22 15.99 3.22 15.19 4.84 5.02 4.84 4.22 3.22 3.86 3.22 4.85 5.25 15.36 5.25"/><polygon class="cls-5" points="5.54 4.44 4.94 3.22 4.58 3.22 5.18 4.44 5.54 4.44"/><path class="cls-6" d="M18.68,3.22l-.19.4L17.86,4.9a.61.61,0,0,1-.53.35l1-2Z"/><polygon class="cls-5" points="16.54 3.57 17.8 3.57 17.97 3.23 16.71 3.22 16.54 3.57"/><path class="cls-5" d="M1.53,3.22l.19.4L2.35,4.9a.62.62,0,0,0,.54.35l-1-2Z"/></svg>