<svg xmlns="http://www.w3.org/2000/svg" viewBox="0 0 71.03 19.34"><defs><style>.cls-1,.cls-2,.cls-4{fill:#2c3135;}.cls-1,.cls-4{stroke:#2c3135;}.cls-1,.cls-3,.cls-4,.cls-5{stroke-miterlimit:10;}.cls-1,.cls-3{stroke-width:0.35px;}.cls-1,.cls-2,.cls-3,.cls-4,.cls-5{fill-rule:evenodd;}.cls-3,.cls-5{fill:#ef3824;stroke:#ef3824;}.cls-4,.cls-5{stroke-width:0.75px;}</style></defs><title>logo-text</title><g id="Layer_10" data-name="Layer 10"><path class="cls-1" d="M16.2,1.42h0A1.06,1.06,0,0,0,15.14.35H8.51V1.43Z"/><polygon class="cls-1" points="16.2 4.7 16.2 3.63 8.51 3.63 8.51 4.71 16.2 4.7"/><path class="cls-1" d="M16.2,7.16H8.51V8.24h6.63A1.06,1.06,0,0,0,16.2,7.16Z"/><path class="cls-1" d="M40.32,8.16h0A2.18,2.18,0,0,0,42.25,7l3.12-5.91L48.48,7a2.18,2.18,0,0,0,1.93,1.16h.15l-4.44-8H44.69Z"/><path class="cls-1" d="M26.64,1.26H20.39V7.05h6.25V4.71H24.43a1,1,0,0,1-1-1H28V6.27a2.12,2.12,0,0,1-.4,1.5,2.1,2.1,0,0,1-1.48.39H20.93a2,2,0,0,1-1.48-.4,2.15,2.15,0,0,1-.39-1.49V2.06A2.17,2.17,0,0,1,19.45.57a2.1,2.1,0,0,1,1.48-.4H26.1a2.14,2.14,0,0,1,1.48.39A2,2,0,0,1,28,2v.2H26.64V1.26Z"/><polygon class="cls-1" points="3.52 9.81 3.7 10.15 67.46 10.15 67.64 9.81 3.52 9.81"/><path class="cls-1" d="M52.78,8.16V7.62L58.7,1.26H54.38A1.09,1.09,0,0,1,53.29.17h7.55V.63l-6,6.42h6a1.12,1.12,0,0,1-1.12,1.11Z"/><path class="cls-1" d="M30.83,8.16V1.5A1.33,1.33,0,0,1,32.16.17h0V7.05h6.05A1.11,1.11,0,0,1,37.1,8.16Z"/><path class="cls-2" d="M71,1.3V3.88l-1.63,3v-2H64.34V8.34H62.69V1.39A1.63,1.63,0,0,1,64.34,0V3.2h5V0h0C70.3,0,71,.38,71,1.3Z"/><path class="cls-3" d="M3.62,8.13h.61L2.51,5H4.87a1.86,1.86,0,0,0,1.28-.36,1.53,1.53,0,0,0,.39-1.17V1.74A1.53,1.53,0,0,0,6.15.57,1.81,1.81,0,0,0,4.87.2H.18v1H3.35A6.62,6.62,0,0,1,5,1.42a.88.88,0,0,1,.19.63V3.21A.89.89,0,0,1,5,3.84,6.74,6.74,0,0,1,3.35,4H.5L2.22,7.29A1.58,1.58,0,0,0,3.62,8.13Z"/><polygon class="cls-4" points="12.36 12.9 7.83 12.9 7.21 11.65 11.74 11.64 12.36 12.9"/><polygon class="cls-4" points="54.56 18.96 58.16 11.64 56.86 11.64 53.97 17.49 17.21 17.49 14.33 11.64 13.03 11.64 16.63 18.96 54.56 18.96"/><polygon class="cls-4" points="13.76 12.61 13.76 12.61 13.76 12.61 13.76 12.62 13.76 12.61"/><polygon class="cls-4" points="19.09 16.03 16.94 11.64 15.63 11.64 17.79 16.03 19.09 16.03"/><path class="cls-5" d="M66.58,11.64l-.7,1.44L63.6,17.69A2.17,2.17,0,0,1,61.68,19l3.6-7.32Z"/><polygon class="cls-4" points="58.84 12.9 63.38 12.9 63.99 11.65 59.47 11.64 58.84 12.9"/><path class="cls-4" d="M4.61,11.64l.71,1.44,2.27,4.61A2.19,2.19,0,0,0,9.51,19l-3.6-7.32Z"/></g></svg>