<svg id="Layer_1" data-name="Layer 1" xmlns="http://www.w3.org/2000/svg" viewBox="0 0 20 20"><defs><style>.cls-1{fill:#6f8396;}.cls-1,.cls-2,.cls-3{fill-rule:evenodd;}.cls-2{fill:#455566;}.cls-3{fill:#ed3724;}.cls-4{fill:#fff;}</style></defs><title>r-logo-symbol</title><path class="cls-1" d="M14.81,7.4a.89.89,0,0,1-.87.87H4.21l4.55,7.48a6.05,6.05,0,0,0,5.18,2.91h2.68l-3.18-5.22a6.05,6.05,0,0,0,6-3.44A6.05,6.05,0,0,0,14.81,7.4Z"/><path class="cls-2" d="M13.94,6.54a.86.86,0,0,1,.61.25.83.83,0,0,1,.26.61A6.05,6.05,0,0,1,19.42,10,6.06,6.06,0,0,0,13.94,6.54Z"/><path class="cls-3" d="M17.3,2.35H.61L0,1.34H13.94A6.06,6.06,0,0,1,17.3,2.35Z"/><path class="cls-3" d="M19.42,10a6.07,6.07,0,0,0-5.48-3.46H6.56a6.09,6.09,0,0,1-5.1-2.79l-.57-1h17a6.21,6.21,0,0,1,1.18,1.36A6.07,6.07,0,0,1,19.42,10Z"/><path class="cls-4" d="M17.88,2.8H.89L.61,2.35H17.3C17.5,2.49,17.69,2.64,17.88,2.8Z"/></svg>