<svg xmlns="http://www.w3.org/2000/svg" viewBox="0 0 70.79 51.41"><defs><style>.cls-1,.cls-2,.cls-5{fill:#2c3135;}.cls-1,.cls-5{stroke:#2c3135;}.cls-1,.cls-3,.cls-5,.cls-6{stroke-miterlimit:10;}.cls-1,.cls-3{stroke-width:0.35px;}.cls-1,.cls-2,.cls-3,.cls-5,.cls-6,.cls-7,.cls-8,.cls-9{fill-rule:evenodd;}.cls-3,.cls-6,.cls-9{fill:#ef3824;}.cls-3,.cls-6{stroke:#ef3824;}.cls-4{fill:#e5e5e5;}.cls-5,.cls-6{stroke-width:0.75px;}.cls-7{fill:#6f8397;}.cls-8{fill:#455566;}.cls-10{fill:#fff;}</style></defs><title>logo-full</title><g id="Layer_10" data-name="Layer 10"><path class="cls-1" d="M16.13,39.23H8.54V40.3h6.53A1.05,1.05,0,0,0,16.13,39.23Z"/><polygon class="cls-1" points="3.62 41.84 3.79 42.17 66.68 42.17 66.86 41.84 3.62 41.84"/><path class="cls-1" d="M16.31,33.57h0a1,1,0,0,0-1-1H8.72v1.06Z"/><polygon class="cls-1" points="16.31 36.88 16.31 35.83 8.72 35.83 8.72 36.89 16.31 36.88"/><path class="cls-1" d="M40.1,40.3h0A2.14,2.14,0,0,0,42,39.15l3.08-5.83,3.06,5.83a2.15,2.15,0,0,0,1.91,1.15h.15l-4.39-7.88H44.4Z"/><path class="cls-1" d="M26.61,33.49H20.44V39.2h6.17V36.89H24.43a1,1,0,0,1-1-1h4.5v2.54a2.18,2.18,0,0,1-.38,1.48,2.09,2.09,0,0,1-1.47.39H21a2,2,0,0,1-1.47-.4,2.09,2.09,0,0,1-.38-1.47V34.28a2.13,2.13,0,0,1,.38-1.47A2.06,2.06,0,0,1,21,32.42h5.09a2.15,2.15,0,0,1,1.46.38,1.94,1.94,0,0,1,.39,1.39v.2H26.61v-.9Z"/><path class="cls-1" d="M52.39,40.3v-.54l5.84-6.27H54a1.07,1.07,0,0,1-1.07-1.07h7.44v.45L54.38,39.2h5.95a1.1,1.1,0,0,1-1.1,1.1Z"/><path class="cls-1" d="M30.74,40.3V33.73a1.31,1.31,0,0,1,1.31-1.31h0V39.2h6a1.1,1.1,0,0,1-1.1,1.1Z"/><path class="cls-2" d="M70.39,33.47V36l-1.61,2.91v-2h-5v3.49H62.16V33.56a1.61,1.61,0,0,1,1.62-1.37v3.16h5V32.19h0C69.66,32.19,70.39,32.57,70.39,33.47Z"/><path class="cls-3" d="M3.9,40.27h.6L2.81,37.22H5.13a1.84,1.84,0,0,0,1.27-.36,1.53,1.53,0,0,0,.38-1.15V34a1.56,1.56,0,0,0-.38-1.16,1.84,1.84,0,0,0-1.27-.36H.51v1H3.63a6.49,6.49,0,0,1,1.65.18.87.87,0,0,1,.18.62v1.14a.85.85,0,0,1-.17.62,6.52,6.52,0,0,1-1.66.18H.82l1.7,3.23A1.56,1.56,0,0,0,3.9,40.27Z"/><rect class="cls-4" x="20.49" y="0.54" width="27.96" height="27.96" rx="6.38" ry="6.38"/><polygon class="cls-5" points="12.34 44.89 7.86 44.89 7.26 43.66 11.72 43.65 12.34 44.89"/><polygon class="cls-5" points="53.95 50.87 57.51 43.65 56.23 43.65 53.38 49.42 17.12 49.42 14.28 43.65 12.99 43.65 16.54 50.86 53.95 50.87"/><polygon class="cls-5" points="13.72 44.61 13.71 44.61 13.71 44.61 13.71 44.61 13.72 44.61"/><polygon class="cls-5" points="18.98 47.98 16.85 43.65 15.56 43.65 17.69 47.98 18.98 47.98"/><path class="cls-6" d="M65.81,43.65l-.69,1.41-2.25,4.55A2.14,2.14,0,0,1,61,50.87l3.55-7.22Z"/><polygon class="cls-5" points="58.18 44.89 62.66 44.89 63.26 43.66 58.8 43.65 58.18 44.89"/><path class="cls-5" d="M4.69,43.65l.7,1.41,2.24,4.55a2.16,2.16,0,0,0,1.9,1.26L6,43.65Z"/><path class="cls-7" d="M39.7,12.3a1,1,0,0,1-.27.68,1,1,0,0,1-.68.28H28l5,8.25a6.68,6.68,0,0,0,5.71,3.21h3L38.2,19a6.71,6.71,0,0,0,6.59-3.8A6.69,6.69,0,0,0,39.7,12.3Z"/><path class="cls-8" d="M38.75,11.35a.93.93,0,0,1,.67.28,1,1,0,0,1,.28.67,6.67,6.67,0,0,1,5.09,2.87A6.68,6.68,0,0,0,38.75,11.35Z"/><path class="cls-9" d="M42.45,6.73H24l-.67-1.11H38.75A6.65,6.65,0,0,1,42.45,6.73Z"/><path class="cls-9" d="M44.79,15.17a6.7,6.7,0,0,0-6-3.82H30.61A6.72,6.72,0,0,1,25,8.27l-.63-1H43.09a6.51,6.51,0,0,1,1.3,1.5A6.71,6.71,0,0,1,44.79,15.17Z"/><path class="cls-10" d="M43.09,7.23H24.35L24,6.73H42.45A6.12,6.12,0,0,1,43.09,7.23Z"/></g></svg>