<svg id="Layer_1" data-name="Layer 1" xmlns="http://www.w3.org/2000/svg" viewBox="0 0 20 14.36"><defs><style>.cls-1,.cls-2,.cls-3,.cls-6{fill:#2c3135;}.cls-1,.cls-2,.cls-6{stroke:#2b3135;}.cls-1,.cls-2,.cls-4,.cls-6,.cls-7{stroke-miterlimit:10;}.cls-1,.cls-2,.cls-4{stroke-width:0.1px;}.cls-1,.cls-10,.cls-3,.cls-4,.cls-6,.cls-7,.cls-8,.cls-9{fill-rule:evenodd;}.cls-10,.cls-4,.cls-7{fill:#ed3724;}.cls-4,.cls-7{stroke:#ed3724;}.cls-5{fill:#e5e5e4;}.cls-6,.cls-7{stroke-width:0.21px;}.cls-8{fill:#6f8396;}.cls-9{fill:#455566;}.cls-11{fill:#fff;}</style></defs><title>r-logo-full</title><path class="cls-1" d="M4.55,11H2.4v.3H4.25A.3.3,0,0,0,4.55,11Z"/><polygon class="cls-1" points="1.01 11.71 1.06 11.8 18.84 11.8 18.89 11.71 1.01 11.71"/><path class="cls-1" d="M4.6,9.37h0a.29.29,0,0,0-.3-.3H2.46v.3Z"/><rect class="cls-2" x="2.46" y="10.01" width="2.15" height="0.3"/><path class="cls-1" d="M11.33,11.27h0a.59.59,0,0,0,.53-.32l.87-1.65L13.6,11a.6.6,0,0,0,.54.32h0L12.94,9h-.4Z"/><path class="cls-1" d="M7.51,9.34H5.77V11H7.51v-.65H6.89A.29.29,0,0,1,6.61,10H7.88v.72a.56.56,0,0,1-.11.42.59.59,0,0,1-.41.11H5.92a.59.59,0,0,1-.41-.11.57.57,0,0,1-.11-.42V9.57a.59.59,0,0,1,.11-.42A.59.59,0,0,1,5.92,9H7.36a.59.59,0,0,1,.41.11.51.51,0,0,1,.11.39V9.6H7.51V9.34Z"/><path class="cls-1" d="M14.8,11.27v-.15l1.65-1.78H15.24a.3.3,0,0,1-.3-.3H17v.13L15.36,11H17a.31.31,0,0,1-.31.31Z"/><path class="cls-1" d="M8.68,11.27V9.41A.37.37,0,0,1,9.05,9h0V11h1.69a.31.31,0,0,1-.31.31Z"/><path class="cls-3" d="M19.89,9.34v.72l-.46.82v-.56H18v1h-.46V9.37A.46.46,0,0,1,18,9v.89h1.41V9h0C19.68,9,19.89,9.09,19.89,9.34Z"/><path class="cls-4" d="M1.09,11.26h.17L.78,10.4h.66a.5.5,0,0,0,.36-.1A.45.45,0,0,0,1.91,10V9.48a.45.45,0,0,0-.11-.33.5.5,0,0,0-.36-.1H.13v.29H1a2,2,0,0,1,.46.05s.05.09.05.18v.32c0,.08,0,.14-.05.17a1.54,1.54,0,0,1-.46,0H.22L.7,11A.45.45,0,0,0,1.09,11.26Z"/><rect class="cls-5" x="5.78" y="0.03" width="7.9" height="7.9" rx="1.8" ry="1.8"/><polygon class="cls-6" points="3.48 12.57 2.21 12.57 2.04 12.22 3.3 12.22 3.48 12.57"/><polygon class="cls-6" points="15.24 14.26 16.25 12.22 15.88 12.22 15.08 13.85 4.83 13.85 4.03 12.22 3.66 12.22 4.67 14.26 15.24 14.26"/><polygon class="cls-6" points="5.35 13.44 4.75 12.22 4.39 12.22 4.99 13.44 5.35 13.44"/><path class="cls-7" d="M18.59,12.22l-.19.4-.64,1.28a.6.6,0,0,1-.53.36l1-2Z"/><polygon class="cls-6" points="16.44 12.57 17.7 12.57 17.87 12.22 16.61 12.22 16.44 12.57"/><path class="cls-6" d="M1.32,12.22l.19.4.64,1.28a.6.6,0,0,0,.53.36l-1-2Z"/><path class="cls-8" d="M11.21,3.36a.26.26,0,0,1-.07.19.3.3,0,0,1-.2.08h-3L9.33,6a1.89,1.89,0,0,0,1.61.91h.84l-1-1.63a1.9,1.9,0,0,0,1.86-1.07A1.86,1.86,0,0,0,11.21,3.36Z"/><path class="cls-9" d="M10.94,3.09a.27.27,0,0,1,.27.27,1.86,1.86,0,0,1,1.44.81A1.89,1.89,0,0,0,10.94,3.09Z"/><path class="cls-10" d="M12,1.78H6.79L6.6,1.47h4.34A1.9,1.9,0,0,1,12,1.78Z"/><path class="cls-10" d="M12.65,4.17a1.89,1.89,0,0,0-1.71-1.08H8.64a1.9,1.9,0,0,1-1.59-.87l-.18-.3h5.3a1.86,1.86,0,0,1,.37.42A1.92,1.92,0,0,1,12.65,4.17Z"/><path class="cls-11" d="M12.17,1.92H6.87l-.08-.14H12Z"/></svg>