<svg id="Layer_1" data-name="Layer 1" xmlns="http://www.w3.org/2000/svg" viewBox="0 0 20 20"><title>map-view</title><path d="M8.16,12.93l.47,1.16a7.89,7.89,0,0,1-1.34.41L7,13.28A7.55,7.55,0,0,0,8.16,12.93Zm-3.72,1.5a5.69,5.69,0,0,0,1.44.21V13.39a4.43,4.43,0,0,1-1.1-.16Zm9.84-2.18a3.65,3.65,0,0,1,1.05.37l.57-1.11A5.35,5.35,0,0,0,14.53,11Zm-2.6-1,.37,1.2a5.19,5.19,0,0,1,1.12-.23L13.07,11A6.43,6.43,0,0,0,11.68,11.22Zm-2,.94-.41.25.6,1.09.47-.27a5.06,5.06,0,0,1,.63-.36l-.57-1.11C10.16,11.88,9.92,12,9.67,12.16Zm3.46-7.78a3.15,3.15,0,0,1-.34,1.41L10,11.25,7.18,5.73a3.07,3.07,0,0,1-.3-1.35,3.13,3.13,0,1,1,6.25,0Zm-1.25,0A1.88,1.88,0,1,0,10,6.25,1.88,1.88,0,0,0,11.88,4.38ZM16.25,7.5H13.32l-.64,1.25h2.67L16.7,12.8l-.43.47a5,5,0,0,1,.7.8L17.1,14l1.17,3.51H1.73L3,13.75l.12.09.67-1.06c-.15-.09-.27-.19-.38-.27L4.65,8.75H7.32c-.26-.52-.47-.93-.64-1.25H3.75L0,18.75H20Z"/></svg>