<svg id="Layer_1" data-name="Layer 1" xmlns="http://www.w3.org/2000/svg" viewBox="0 0 20 20"><title>my-cars</title><path d="M13.37,14.73H7.65c-.69,0-.86-.16-.85-.85A16.71,16.71,0,0,1,6.88,12a2.51,2.51,0,0,1,1.26-1.88,1.26,1.26,0,0,0,.45-.52c.28-.64.52-1.3.79-1.95a1.5,1.5,0,0,1,1.58-1c1.67.06,3.34,0,5,0a1.31,1.31,0,0,1,1.37.85c.3.68.56,1.38.85,2.06a1.08,1.08,0,0,0,.38.5A2.77,2.77,0,0,1,20,12.61c0,.43,0,.85,0,1.27,0,.73-.12.85-.84.85ZM17.44,10c-.3-.72-.53-1.39-.84-2a1,1,0,0,0-.67-.45q-2.53,0-5.07,0a.76.76,0,0,0-.58.32C10,8.49,9.68,9.2,9.37,10Zm.8,2.46a.83.83,0,0,0-1.66,0,.83.83,0,1,0,1.66,0Zm-8,0a.8.8,0,0,0-.83-.83.78.78,0,0,0-.81.79.82.82,0,0,0,.8.87A.84.84,0,0,0,10.21,12.45Z"/><path d="M4.06,8.17v7.75c0,.17,0,.33,0,.49,0,.43-.23.71-.66.69s-.63-.28-.62-.72V11.19H2.59c0,.16,0,.32,0,.48V16c0,.16.05.37,0,.47s-.42.56-.68.6-.62-.23-.62-.65V7.11H1.07c0,.21,0,.42,0,.63v2.66c0,.35-.18.63-.53.56A.77.77,0,0,1,0,10.41C0,9.18,0,8,0,6.73A1.46,1.46,0,0,1,1.46,5.31h2a1.28,1.28,0,0,1,1.36,1A2.22,2.22,0,0,0,7,8.23a1.69,1.69,0,0,1,.4.13c.34.13.55.34.44.73a.57.57,0,0,1-.8.42,22,22,0,0,1-2.14-.64C4.58,8.76,4.37,8.45,4.06,8.17Z"/><path d="M16.32,15.14h2.15c-.06.61.31,1.34-.31,1.76a1.63,1.63,0,0,1-1.35.08C16.06,16.62,16.4,15.83,16.32,15.14Z"/><path d="M8.31,15.15h2.13c0,.61.3,1.34-.34,1.75A1.57,1.57,0,0,1,8.76,17C8,16.59,8.42,15.8,8.31,15.15Z"/><path d="M3.69,4A1.06,1.06,0,0,1,1.58,4a1,1,0,0,1,1-1.08A1,1,0,0,1,3.69,4Z"/></svg>