<svg id="Layer_1" data-name="Layer 1" xmlns="http://www.w3.org/2000/svg" viewBox="0 0 20 5.56"><title>r-plate-text</title><path d="M6.18,4.85c0,.2-.13.36-.37.5a1.79,1.79,0,0,1-.88.21H1.25a1.76,1.76,0,0,1-.88-.21C.12,5.21,0,5.05,0,4.85V2.44H.77V4.85a.26.26,0,0,0,.14.21.64.64,0,0,0,.34.09H4.93a.58.58,0,0,0,.33-.09.26.26,0,0,0,.14-.21V2h.78ZM3.67,1.13A.23.23,0,0,0,3.54.94.72.72,0,0,0,3.19.86a.71.71,0,0,0-.34.08.21.21,0,0,0-.13.19c0,.08,0,.14.14.2a.58.58,0,0,0,.33.09.62.62,0,0,0,.34-.09C3.62,1.27,3.67,1.21,3.67,1.13Z"/><path d="M9,4.34H8.21V0H9Z"/><path d="M15.26,4.34H13.31v.51c0,.2-.12.36-.37.5a1.76,1.76,0,0,1-.88.21H11V5.15h1a.58.58,0,0,0,.33-.09.24.24,0,0,0,.14-.21V2h.78v2h1.95Z"/><path d="M16.83,4.13a1.74,1.74,0,0,1-.88.21h-1.9V3.9H16a.69.69,0,0,0,.34-.07.23.23,0,0,0,.14-.2V2h.78V3.63C17.21,3.83,17.08,4,16.83,4.13ZM15.21,5.48a.76.76,0,0,1-.68,0,.21.21,0,0,1-.13-.19.22.22,0,0,1,.13-.19.76.76,0,0,1,.68,0,.23.23,0,0,1,.14.19A.22.22,0,0,1,15.21,5.48Zm1.73,0a.76.76,0,0,1-.68,0,.22.22,0,0,1-.14-.19.23.23,0,0,1,.14-.19.76.76,0,0,1,.68,0,.22.22,0,0,1,.13.19A.21.21,0,0,1,16.94,5.48Z"/><path d="M20,4.34h-.77V0H20Z"/></svg>