<svg id="Layer_1" data-name="Layer 1" xmlns="http://www.w3.org/2000/svg" viewBox="0 0 9.19 20"><defs><style>.cls-1{fill:#2e3192;}.cls-2{fill:#239f40;}.cls-3,.cls-6{fill:#fff;}.cls-4{fill:#da0000;}.cls-5{fill:none;stroke:#fff;stroke-linecap:square;stroke-width:0.04px;}.cls-6{font-size:3.22px;font-family:Arial-BoldMT, Arial;font-weight:700;}</style></defs><title>r-plate-side</title><rect class="cls-1" width="9.2" height="20"/><rect class="cls-2" x="0.75" y="1.36" width="7.69" height="4.4"/><rect class="cls-3" x="0.75" y="2.83" width="7.69" height="1.47"/><rect class="cls-4" x="0.75" y="4.3" width="7.69" height="1.47"/><g id="b"><path id="p" class="cls-5" d="M4.29,2.61H4.7m-.41.13V2.68h.13v.06h.14V2.68H4.49m.21.06H4.63V2.68h.14V2.61m0,.07v.06H4.9V2.61m-.07,0v.13m-.47,0h0"/><path id="t" class="cls-5" d="M4.29,2.82h.27m.07,0H4.9"/><path id="p-2" data-name="p" class="cls-5" d="M4.29,4.38H4.7m-.41.14V4.45h.13v.07h.14V4.45H4.49m.21.07H4.63V4.45h.14V4.38m0,.07v.07H4.9V4.38m-.07,0v.14m-.47,0h0"/><path id="t-2" data-name="t" class="cls-5" d="M4.29,4.31h.27m.07,0H4.9"/></g><g id="b2"><g id="b-2" data-name="b"><path id="p-3" data-name="p" class="cls-5" d="M5,2.61h.41M5,2.74V2.68h.14v.06h.13V2.68H5.18m.2.06H5.31V2.68h.14V2.61m0,.07v.06h.14V2.61m-.07,0v.13M5,2.74H5"/><path id="t-3" data-name="t" class="cls-5" d="M5,2.82h.27m.07,0h.28"/><path id="p-4" data-name="p" class="cls-5" d="M5,4.38h.41M5,4.52V4.45h.14v.07h.13V4.45H5.18m.2.07H5.31V4.45h.14V4.38m0,.07v.07h.14V4.38m-.07,0v.14M5,4.52H5"/><path id="t-4" data-name="t" class="cls-5" d="M5,4.31h.27m.07,0h.28"/></g></g><g id="b4"><g id="b-3" data-name="b"><path id="p-5" data-name="p" class="cls-5" d="M2.92,2.61h.41m-.41.13V2.68h.14v.06h.13V2.68H3.12m.21.06H3.26V2.68H3.4V2.61m0,.07v.06h.13V2.61m-.06,0v.13M3,2.74H3"/><path id="t-5" data-name="t" class="cls-5" d="M2.92,2.82h.27m.07,0h.27"/><path id="p-6" data-name="p" class="cls-5" d="M2.92,4.38h.41m-.41.14V4.45h.14v.07h.13V4.45H3.12m.21.07H3.26V4.45H3.4V4.38m0,.07v.07h.13V4.38m-.06,0v.14M3,4.52H3"/><path id="t-6" data-name="t" class="cls-5" d="M2.92,4.31h.27m.07,0h.27"/></g><g id="b2-2" data-name="b2"><g id="b-4" data-name="b"><path id="p-7" data-name="p" class="cls-5" d="M3.6,2.61H4m-.41.13V2.68h.14v.06h.14V2.68H3.81m.2.06H4V2.68h.13V2.61m0,.07v.06h.14V2.61m-.07,0v.13m-.48,0h0"/><path id="t-7" data-name="t" class="cls-5" d="M3.6,2.82h.28m.07,0h.27"/><path id="p-8" data-name="p" class="cls-5" d="M3.6,4.38H4m-.41.14V4.45h.14v.07h.14V4.45H3.81m.2.07H4V4.45h.13V4.38m0,.07v.07h.14V4.38m-.07,0v.14m-.48,0h0"/><path id="t-8" data-name="t" class="cls-5" d="M3.6,4.31h.28m.07,0h.27"/></g></g></g><g id="b-5" data-name="b"><path id="p-9" data-name="p" class="cls-5" d="M7,2.61h.41M7,2.74V2.68h.14v.06H7.3V2.68H7.23m.2.06H7.36V2.68H7.5V2.61m0,.07v.06h.14V2.61m-.07,0v.13m-.48,0h0"/><path id="t-9" data-name="t" class="cls-5" d="M7,2.82H7.3m.06,0h.28"/><path id="p-10" data-name="p" class="cls-5" d="M7,4.38h.41M7,4.52V4.45h.14v.07H7.3V4.45H7.23m.2.07H7.36V4.45H7.5V4.38m0,.07v.07h.14V4.38m-.07,0v.14m-.48,0h0"/><path id="t-10" data-name="t" class="cls-5" d="M7,4.31H7.3m.06,0h.28"/></g><g id="b2-3" data-name="b2"><g id="b-6" data-name="b"><path id="p-11" data-name="p" class="cls-5" d="M7.71,2.61h.41m-.41.13V2.68h.13v.06H8V2.68H7.91m.21.06H8.05V2.68h.14V2.61m0,.07v.06h.13V2.61m-.07,0v.13m-.47,0h0"/><path id="t-11" data-name="t" class="cls-5" d="M7.71,2.82H8m.07,0h.27"/><path id="p-12" data-name="p" class="cls-5" d="M7.71,4.38h.41m-.41.14V4.45h.13v.07H8V4.45H7.91m.21.07H8.05V4.45h.14V4.38m0,.07v.07h.13V4.38m-.07,0v.14m-.47,0h0"/><path id="t-12" data-name="t" class="cls-5" d="M7.71,4.31H8m.07,0h.27"/></g></g><g id="b4-2" data-name="b4"><g id="b-7" data-name="b"><path id="p-13" data-name="p" class="cls-5" d="M5.66,2.61h.41m-.41.13V2.68h.13v.06h.14V2.68H5.86m.21.06H6V2.68h.13V2.61m0,.07v.06h.14V2.61m-.07,0v.13m-.48,0h0"/><path id="t-13" data-name="t" class="cls-5" d="M5.66,2.82h.27m.07,0h.27"/><path id="p-14" data-name="p" class="cls-5" d="M5.66,4.38h.41m-.41.14V4.45h.13v.07h.14V4.45H5.86m.21.07H6V4.45h.13V4.38m0,.07v.07h.14V4.38m-.07,0v.14m-.48,0h0"/><path id="t-14" data-name="t" class="cls-5" d="M5.66,4.31h.27m.07,0h.27"/></g><g id="b2-4" data-name="b2"><g id="b-8" data-name="b"><path id="p-15" data-name="p" class="cls-5" d="M6.34,2.61h.41m-.41.13V2.68h.14v.06h.13V2.68H6.54m.21.06H6.68V2.68h.14V2.61m0,.07v.06H7V2.61m-.06,0v.13m-.48,0h0"/><path id="t-15" data-name="t" class="cls-5" d="M6.34,2.82h.27m.07,0H7"/><path id="p-16" data-name="p" class="cls-5" d="M6.34,4.38h.41m-.41.14V4.45h.14v.07h.13V4.45H6.54m.21.07H6.68V4.45h.14V4.38m0,.07v.07H7V4.38m-.06,0v.14m-.48,0h0"/><path id="t-16" data-name="t" class="cls-5" d="M6.34,4.31h.27m.07,0H7"/></g></g></g><g id="b-9" data-name="b"><path id="p-17" data-name="p" class="cls-5" d="M2.24,2.61h.41m-.41.13V2.68h.13v.06h.14V2.68H2.44m.21.06H2.58V2.68h.13V2.61m0,.07v.06h.14V2.61m-.07,0v.13m-.48,0h0"/><path id="t-17" data-name="t" class="cls-5" d="M2.24,2.82h.27m.07,0h.27"/><path id="p-18" data-name="p" class="cls-5" d="M2.24,4.38h.41m-.41.14V4.45h.13v.07h.14V4.45H2.44m.21.07H2.58V4.45h.13V4.38m0,.07v.07h.14V4.38m-.07,0v.14m-.48,0h0"/><path id="t-18" data-name="t" class="cls-5" d="M2.24,4.31h.27m.07,0h.27"/></g><g id="b-10" data-name="b"><path id="p-19" data-name="p" class="cls-5" d="M.87,2.61h.41m-.41.13V2.68H1v.06h.14V2.68H1.07m.21.06H1.21V2.68h.14V2.61m0,.07v.06h.13V2.61m-.07,0v.13m-.47,0h0"/><path id="t-19" data-name="t" class="cls-5" d="M.87,2.82h.27m.07,0h.27"/><path id="p-20" data-name="p" class="cls-5" d="M.87,4.38h.41m-.41.14V4.45H1v.07h.14V4.45H1.07m.21.07H1.21V4.45h.14V4.38m0,.07v.07h.13V4.38m-.07,0v.14m-.47,0h0"/><path id="t-20" data-name="t" class="cls-5" d="M.87,4.31h.27m.07,0h.27"/></g><g id="b2-5" data-name="b2"><g id="b-11" data-name="b"><path id="p-21" data-name="p" class="cls-5" d="M1.55,2.61H2m-.41.13V2.68h.14v.06h.14V2.68H1.76m.2.06H1.89V2.68H2V2.61m0,.07v.06h.14V2.61m-.07,0v.13m-.48,0h0"/><path id="t-21" data-name="t" class="cls-5" d="M1.55,2.82h.28m.06,0h.28"/><path id="p-22" data-name="p" class="cls-5" d="M1.55,4.38H2m-.41.14V4.45h.14v.07h.14V4.45H1.76m.2.07H1.89V4.45H2V4.38m0,.07v.07h.14V4.38m-.07,0v.14m-.48,0h0"/><path id="t-22" data-name="t" class="cls-5" d="M1.55,4.31h.28m.06,0h.28"/></g></g><path class="cls-4" d="M4.82,3.17a.55.55,0,0,1,.1.76A.42.42,0,0,0,4.82,3.17Z"/><path class="cls-4" d="M4.6,3.13c-.07.07-.18,0-.14-.08.07.12.14,0,.14,0s.06.1.13,0a.08.08,0,0,1-.13.08Z"/><path class="cls-4" d="M4.6,4.09l0,0A.45.45,0,0,1,4.3,4a.6.6,0,0,0,.21,0,.5.5,0,0,1-.26-.43.44.44,0,0,1,.17-.38.54.54,0,0,0,.13.74l0-.42V3.2l.07-.05.06.05v.3l0,.42a.54.54,0,0,0,.13-.74.44.44,0,0,1,.17.38A.5.5,0,0,1,4.68,4a.6.6,0,0,0,.21,0,.45.45,0,0,1-.25,0l0,0Z"/><path class="cls-4" d="M4.37,3.17a.55.55,0,0,0-.1.76A.42.42,0,0,1,4.37,3.17Z"/><text class="cls-6" transform="translate(0.71 14.25)">I.R.</text><text class="cls-6" transform="translate(0.71 17.85)">IRAN</text></svg>