<svg id="Layer_1" data-name="Layer 1" xmlns="http://www.w3.org/2000/svg" viewBox="0 0 20 20"><title>request-service</title><path d="M4.78,17.35c.16-.37.28-.71.45-1a.93.93,0,0,1,.6-.5c.19,0,.22-.15.23-.32a6.73,6.73,0,0,1,1-3,4.49,4.49,0,0,1,2.67-2,6.08,6.08,0,0,1,3.46,0,4.82,4.82,0,0,1,3.27,3.59c.14.48.19,1,.29,1.5,0,.07.07.17.12.18a1.15,1.15,0,0,1,.75.63c.14.29.25.6.38.94Zm2.67-2.46a.33.33,0,0,0,.28-.26,4,4,0,0,1,2-2.74c.31-.18.66-.28,1-.45a.39.39,0,0,0,.15-.27c0-.06-.13-.14-.21-.19s-.11,0-.17,0a4.88,4.88,0,0,0-1.83,1,4.32,4.32,0,0,0-1.45,2.6C7.19,14.75,7.28,14.89,7.45,14.89Zm0,1.34h0c-.43,0-.85,0-1.27,0-.08,0-.15.08-.23.13s.11.15.17.21a.2.2,0,0,0,.13,0H8.6a.2.2,0,0,0,.22-.24c0-.16-.12-.15-.21-.15Z"/><path d="M7.72,3.44c.55-.12,1.07-.29,1.59-.35A14.79,14.79,0,0,1,11.07,3c.67,0,1.33,0,2,0a5.58,5.58,0,0,1,.81.09,1,1,0,0,1,.28.11.39.39,0,0,1,.27.39.34.34,0,0,1-.3.33,6,6,0,0,1-1,.16c-.52,0-1.06,0-1.59,0a3.56,3.56,0,0,0-1.81.61C9,5.24,8.22,5.69,7.44,6.1a2.56,2.56,0,0,1-2.06.19C4.16,5.9,3,5.45,1.71,5l2-3.81c.31.17.62.32.91.5a1.73,1.73,0,0,0,1.77.1C7.54,1.28,8.68.8,9.82.3a3,3,0,0,1,2.89.15c.52.31,1.07.57,1.6.86C15.87,2.18,17.42,3,19,3.92a4.48,4.48,0,0,1,.8.57.56.56,0,0,1-.11,1,1.5,1.5,0,0,1-1.29,0l-.66-.24c-.05.45-.23.63-.66.67a2.1,2.1,0,0,1-1.41-.34.19.19,0,0,0-.18,0,1.17,1.17,0,0,1-1.39.25c-.65-.27-1.28-.59-1.92-.89V4.91h.2a5.23,5.23,0,0,0,1.76-.18,2.2,2.2,0,0,0,.7-.39,1.06,1.06,0,0,0-.21-1.77,3.28,3.28,0,0,0-1.47-.32c-1,0-2.07,0-3.1,0A3.36,3.36,0,0,0,7.72,3.44Z"/><path d="M3.13,20a2.11,2.11,0,0,1,1-1.83.74.74,0,0,1,.26,0H18.42a.59.59,0,0,1,.43.17,2.24,2.24,0,0,1,.81,1.56V20s0,0,0,.05Z"/><path d="M2.06,0l1,.75L1,4.89,0,4.52Z"/><path d="M11.38,9.83c-.25,0-.49,0-.71-.09s-.32-.17-.31-.44a.92.92,0,0,1,.84-1,1.16,1.16,0,0,1,.77.14,1,1,0,0,1,.44,1,.33.33,0,0,1-.28.34C11.88,9.78,11.62,9.8,11.38,9.83Z"/><path d="M11.72,7.9h-.67V7.17H10V6.44h2.72v.72h-1Z"/></svg>