<svg id="Layer_1" data-name="Layer 1" xmlns="http://www.w3.org/2000/svg" viewBox="0 0 20 20"><title>service-centers-2</title><path d="M5.32,13,4.7,13l0-.54h.61A.7.7,0,0,0,4.46,12c-.37.18-.42.19-.77.06l-.34-.36s-.08-.09-.08-.14c0-.75,0-1.5,0-2.25,0-.2.11-.25.29-.28s.58,0,.74-.15.12-.47.17-.72c.08-.44.08-.44.52-.44H7.14a4.12,4.12,0,0,0-.32-1.91l0,0L7.56,7c.14.26.27.54.42.8A.39.39,0,0,0,8.24,8c.64,0,1.27,0,1.9,0,.14,0,.28-.23.37-.38a3.1,3.1,0,0,0,.15-.46c0-.07.11-.18.15-.17s.22.08.24.16a3.72,3.72,0,0,1,.09.61h.42c.22,0,.31.09.3.31L11.8,9.1a.31.31,0,0,1-.3.32,2.76,2.76,0,0,1-1.18,0c-.09,0-.21,0-.32,0l-2.49.17-.06,0-.13-1h0a1.5,1.5,0,0,1,0,.2q-.16,3.75-.35,7.52c0,.67,0,1.35-.08,2,0,.19,0,.27.23.3s.18.06.28.08a.36.36,0,0,1,.31.32c.09.4,0,.51-.4.51H5.32c-.2,0-.28-.07-.28-.26s0-.41,0-.61l.09-4.54A.3.3,0,0,0,5,13.91S5,14,5,14c-.2,1.5-.39,3-.57,4.49a.26.26,0,0,0,.11.2.7.7,0,0,1,.18.76.24.24,0,0,1-.16.07c-.6,0-1.19,0-1.79,0-.17,0-.21-.08-.2-.22,0-.36,0-.72,0-1.08l.21-4.49q0-.16,0-.36a1.79,1.79,0,0,0,.24,0,.72.72,0,0,0,.34-.16c.12-.13.19-.28.4-.2a1.3,1.3,0,0,1,.45.19A.74.74,0,0,0,5.32,13ZM4.91,8.15V8.5h.5V8.15Zm2,0h-.5V8.5h.5Z"/><path d="M18,13.45c.53.41.46,1,.46,1.52v2.42H20v.44H7.26v-.44H8.81V14.32a1.29,1.29,0,0,1,.44-.88,3.52,3.52,0,0,1-.39-.18c-.1,0-.28,0-.22-.25s.08-.44.37-.44a6.43,6.43,0,0,0,.76,0,.54.54,0,0,0,.34-.16c.25-.26.45-.56.71-.81a.82.82,0,0,1,.47-.24,31.92,31.92,0,0,1,4.69,0,.84.84,0,0,1,.46.23,10.13,10.13,0,0,1,.67.8.45.45,0,0,0,.42.19h.66a.45.45,0,0,1,.44.52c0,.05-.08.1-.13.13Zm-7.93-.23h7.1s0-.05,0-.07c-.35-.42-.69-.85-1.05-1.26a.4.4,0,0,0-.26-.1,28,28,0,0,0-4.39,0,.56.56,0,0,0-.33.17c-.24.27-.47.56-.7.84Zm6.41,3.46H10.8v.7h5.67Zm-6-1.83v0H11a.24.24,0,0,0,.18-.1.4.4,0,0,0-.34-.56L9.57,14a.23.23,0,0,0-.18.07.49.49,0,0,0,.35.71Zm6.36,0v0h.56c.43,0,.56-.18.53-.61,0-.14-.07-.2-.22-.18l-1.31.16a.5.5,0,0,0-.2.08.39.39,0,0,0-.12.48c0,.06.19.09.3.1Z"/><path d="M0,11.94a.72.72,0,0,1,1.07-.1.86.86,0,0,0,.63.15c0-.71-.08-1.4-.09-2.09A14.58,14.58,0,0,1,2,6.48,2.16,2.16,0,0,1,2.94,5a.44.44,0,0,1,.51,0A3.14,3.14,0,0,1,4.88,7.09a2.77,2.77,0,0,1,0,.3H4.73c-.48,0-.48,0-.56.48l-.06.32c-.09.52-.12.54-.71.5l.19-1.08-.26,0c-.1.55-.24,1.08-.29,1.62,0,.69,0,1.38,0,2.07,0,.14,0,.28,0,.42s0,.24.17.27a.23.23,0,0,1,.18.28,4.48,4.48,0,0,1-.06.63c0,.09-.15.22-.23.22A3.92,3.92,0,0,1,2,13a1.55,1.55,0,0,0-.65-.21.78.78,0,0,0-.34.09.73.73,0,0,1-1-.27H.41c.15,0,.24,0,.23-.19a1.8,1.8,0,0,1,0-.22c0-.13,0-.19-.17-.19Z"/><path d="M3.32,2.65A1.56,1.56,0,0,1,4.56.54a2.44,2.44,0,0,1,1.2,0,.88.88,0,0,1,.68.61.67.67,0,0,0,.85.56,1.29,1.29,0,0,1,.34,0,1.06,1.06,0,0,1,.25.09,2.92,2.92,0,0,1-.17.36s-.08,0-.13,0l-4.13.44A.56.56,0,0,1,3.32,2.65Z"/><path d="M6.53,2.6c.07,1.13-.32,1.78-1.28,1.95A1.68,1.68,0,0,1,3.42,3Z"/><path d="M4.22,5c.55.14,1.06.71,1.77.38A3.73,3.73,0,0,1,6.7,7.39H5.46A9.74,9.74,0,0,0,5,6.07,9.53,9.53,0,0,0,4.22,5Z"/></svg>