<svg id="Layer_1" data-name="Layer 1" xmlns="http://www.w3.org/2000/svg" viewBox="0 0 20 20"><title>r-service-centers</title><path d="M3.68,20a3.75,3.75,0,0,1-.82-.35,1.68,1.68,0,0,1-.7-1.5V9.77c0-1.08,0-2.15,0-3.22A.29.29,0,0,0,2,6.26,3.61,3.61,0,0,1,.46,1.76,3.48,3.48,0,0,1,2,0V2.71A.24.24,0,0,0,2.16,3l1.5.87a.23.23,0,0,0,.28,0c.51-.29,1-.59,1.52-.87a.24.24,0,0,0,.14-.25c0-.83,0-1.65,0-2.48V0l0,0a8.63,8.63,0,0,1,.73.6,3.55,3.55,0,0,1,.28,4.73,5.1,5.1,0,0,1-.9.83.4.4,0,0,0-.18.35c0,3.88,0,7.75,0,11.63a1.66,1.66,0,0,1-.7,1.51,4.5,4.5,0,0,1-.81.35Zm.76-1.42a.65.65,0,0,0-1.3,0,.65.65,0,1,0,1.3,0Z"/><path d="M6.3,13.05v-.2H12v-.7H6.29V9h9.4c-.07-.31-.14-.59-.21-.87-.21-.83-.4-1.67-.64-2.49a2.11,2.11,0,0,0-2-1.53H8c0-.16.06-.31.1-.46a.16.16,0,0,1,.12-.07c1.56,0,3.13,0,4.69,0a2.77,2.77,0,0,1,2.59,2.13c.28,1.06.5,2.13.75,3.19,0,.12,0,.25.08.36a1.17,1.17,0,0,0,.17.26l.06,0c.06-.45.1-.91.16-1.37a.25.25,0,0,1,.1-.18A7,7,0,0,1,19,7.54a1.24,1.24,0,0,1,.27,0,.53.53,0,0,1,.51.58c0,.38,0,.77,0,1.15,0,.16-.06.22-.23.23-.85,0-1.69.08-2.54.12l-.23,0,.36.43a1.76,1.76,0,0,1,.46,1.17c0,1,0,2,0,3a2,2,0,0,1-1.28,1.8.3.3,0,0,0-.21.33c0,.47,0,.93,0,1.39a1.16,1.16,0,0,1-.73,1.2,2.48,2.48,0,0,1-2.58-.19,1,1,0,0,1-.43-.87c0-.46,0-.91,0-1.37a1.54,1.54,0,0,0,0-.19H6.3a.92.92,0,0,1,0-.15V13.88s0-.09,0-.13H12v-.7H6.3Zm6.58.64h3.35V12.11H12.88Z"/><path d="M6.3,13.75s-.1-.05-.1-.08a4.86,4.86,0,0,1,0-.54s.06-.06.1-.08h0v.71Z"/><path d="M6.3,12.86s-.1,0-.1-.08a4.86,4.86,0,0,1,0-.54s.06-.06.1-.08h0v.71Z"/></svg>