<svg id="Layer_1" data-name="Layer 1" xmlns="http://www.w3.org/2000/svg" viewBox="0 0 20 20"><title>service-centers-3</title><path d="M13.59,14.91a.66.66,0,0,1,.71-.82h2.47V2.83c0-.52,0-.53.53-.53h1.21c.45,0,.5.05.51.49V14c.71.19.88.4.69.88Z"/><path d="M.22,14.61c.26-.43.29-.45.89-.57V2.85c0-.55,0-.55.55-.55H2.75c.55,0,.56,0,.56.54V14.09H5.67a1.46,1.46,0,0,1,.37,0,.55.55,0,0,1,.37.79H.22Z"/><path d="M5.7,4.15l.06.3h.07c.1-.64.19-1.29.29-1.93a4.06,4.06,0,0,1,.16-.69.77.77,0,0,1,.65-.54,16.51,16.51,0,0,1,5.78-.07c1,.16,1,.21,1.22,1.21.11.65.19,1.31.3,2.07l.08-.41c.4.84,1,1.52.88,2.5a7.72,7.72,0,0,0,0,1.36.46.46,0,0,1-.4.55c-.51.09-1,.15-1.56.21A.3.3,0,0,1,13,8.58a1.54,1.54,0,0,0-1.48-.17.82.82,0,0,0-.12.22H5.77a1.88,1.88,0,0,1-.47-.1.56.56,0,0,1-.47-.63,7,7,0,0,0,0-1A3.2,3.2,0,0,1,5.36,4.8C5.48,4.61,5.57,4.4,5.7,4.15Zm7.51.18H6.91l.23.56c-.3,0-.3,0-.46-.57l-.41.1V4.5l.34,0c-.26.1-.54.11-.79.2a.64.64,0,0,0-.41.66h.82c1,0,1,0,1.27.9A.48.48,0,0,0,8,6.67h3.44c1,0,1,0,1.33-1a.37.37,0,0,1,.42-.31c.48,0,1,0,1.49,0-.11-.8-.71-.77-1.3-.77l.05-.1.43,0V4.38l-.5,0c-.07.58-.1.61-.43.55ZM10.09,6.91c-.48,0-1,0-1.44,0a1,1,0,0,0-.36.19,1.7,1.7,0,0,0,.24.39.68.68,0,0,0,.36.08h2.34c.11,0,.26,0,.32-.07a1.94,1.94,0,0,0,.27-.41c-.13-.06-.25-.17-.37-.18C11,6.9,10.54,6.91,10.09,6.91Zm0-3.24H11c.26,0,.34-.12.2-.36-.29-.51-.59-1-.89-1.53-.13-.23-.26-.24-.4,0-.31.52-.61,1-.91,1.56-.13.22-.06.33.19.33Zm-3,2.63.07-.11C7,6.07,7,5.86,6.85,5.86a13.88,13.88,0,0,0-1.58,0c-.06,0-.14.17-.17.27s.12.16.19.16ZM15,6.23c.1-.32,0-.44-.3-.44s-.78,0-1.17,0-.45.13-.48.45Zm-1,.51h0c.29,0,.58,0,.86,0,.09,0,.16-.15.24-.23s-.13-.12-.19-.12H13.09c-.07,0-.14.13-.21.2s.13.15.2.15C13.36,6.75,13.63,6.74,13.91,6.74ZM6.16,6.39c-.25,0-.5,0-.75,0s-.19.1-.29.15c.09.06.18.18.27.18.53,0,1.05,0,1.58,0,.09,0,.18-.11.27-.17-.09,0-.19-.15-.29-.16C6.69,6.38,6.43,6.39,6.16,6.39Z"/><path d="M4.16,10.09H8.09c.1,0,.27.07.28.11a.46.46,0,0,1-.12.33.9.9,0,0,1-.45.13H4.13c0,.22,0,.42,0,.62a.78.78,0,0,1-.15.4.44.44,0,0,1-.34.09s-.09-.16-.09-.25c0-.74,0-1.48,0-2.22A1,1,0,0,1,3.71,9c.13.09.33.17.37.3A4.87,4.87,0,0,1,4.16,10.09Z"/><path d="M16,10.74H12.24c-.41,0-.54-.15-.52-.6h4.22a4.2,4.2,0,0,1,0-.72A.77.77,0,0,1,16.23,9s.28.12.28.18c0,.81,0,1.62,0,2.42,0,.07-.18.21-.19.2s-.33-.18-.37-.31A3.3,3.3,0,0,1,16,10.74Z"/><path d="M5,8.86H7.32c0,.23,0,.41,0,.6a.43.43,0,0,1-.48.46H5.64c-.46,0-.59-.13-.6-.57C5,9.17,5,9,5,8.86Z"/><path d="M15,8.82a2.12,2.12,0,0,1,0,.24c0,.79,0,.86-.83.86h-1c-.34,0-.45-.18-.48-.57s.14-.44.44-.45C13.78,8.89,14.38,8.85,15,8.82Z"/><path d="M5.59,3.9c-.2.76-.59,1-1.2.75a.34.34,0,0,1-.18-.27c0-.15.14-.39.24-.4A8.27,8.27,0,0,1,5.59,3.9Z"/><path d="M14.52,4c.35,0,.7,0,1,0s.32.25.32.48-.16.28-.36.27h-.19C14.74,4.72,14.65,4.64,14.52,4Z"/><path d="M12.27,8.67c-.17.09-.27.19-.36.18s-.2-.14-.19-.2.13-.21.21-.21S12.11,8.55,12.27,8.67Z"/><path d="M12.94,8.64c-.17.11-.27.22-.35.21s-.18-.13-.21-.23.13-.19.2-.19S12.77,8.53,12.94,8.64Z"/><path d="M12.89,4.58H7.13V4.47h5.76Z"/><path d="M10.79,3.34H9.37l.71-1.26Z"/><path d="M9,19c0-.39,0-.76,0-1.14,0,0,.06-.09.1-.12a.52.52,0,0,0,.24-.6c-.06-.24-.25-.49-.5-.47,0,.11,0,.23.07.34s0,.26-.22.31-.29,0-.34-.17a1.16,1.16,0,0,1,0-.18c0-.05,0-.11,0-.16A.47.47,0,0,0,8,17.4a.59.59,0,0,0,.28.34.13.13,0,0,1,.07.1c0,.36,0,.73,0,1.12-.31,0-.61,0-.9-.08l-1-.17a1.25,1.25,0,0,1-.27-.1.38.38,0,0,1-.19-.39,2.45,2.45,0,0,1,1-1.84,6.86,6.86,0,0,1,1.5-.88.11.11,0,0,1,.16.05,1.76,1.76,0,0,0,1.19.6,1.67,1.67,0,0,0,1.4-.54.24.24,0,0,1,.33-.06,6.87,6.87,0,0,1,1.41.83,2.46,2.46,0,0,1,.94,1.89.34.34,0,0,1-.24.36,5.09,5.09,0,0,1-.77.19A22.14,22.14,0,0,1,9.2,19Z"/><path d="M11.9,11.75c0,.12,0,.24,0,.36a.28.28,0,0,0,0,.13.57.57,0,0,1-.09.73.6.6,0,0,1-.76.11,2.29,2.29,0,0,0-.82-.35A1.76,1.76,0,0,0,9,13.05a.63.63,0,0,1-.85-.13.57.57,0,0,1,0-.66.37.37,0,0,0,0-.18c0-.22,0-.44,0-.66a1,1,0,0,1,.64-.85,2.79,2.79,0,0,1,1.51-.24,2.87,2.87,0,0,1,.65.12A1.17,1.17,0,0,1,11.9,11.75ZM10,11.6H9.44a.29.29,0,1,0,0,.58h1.14a.28.28,0,0,0,.29-.3.27.27,0,0,0-.29-.28Z"/><path d="M11.73,13.34a2.83,2.83,0,0,1-.09.88A2.16,2.16,0,0,1,11,15.29a1.47,1.47,0,0,1-2.15-.17,2.48,2.48,0,0,1-.57-1.76l.34.05a.87.87,0,0,0,.56-.18,1.4,1.4,0,0,1,1.57-.06l.16.09A.85.85,0,0,0,11.73,13.34Z"/></svg>