<svg id="Layer_1" data-name="Layer 1" xmlns="http://www.w3.org/2000/svg" viewBox="0 0 20 20"><title>transactions</title><path d="M8.11,13.84H2.53c-.22,0-.32-.06-.32-.3q0-3.48,0-7a1,1,0,0,1,0-.16H17.52v7.4h-6l.18-.24a4.23,4.23,0,0,0-.29-5.72A2.36,2.36,0,0,0,8,8.07a4.3,4.3,0,0,0-.07,5.49Zm8.3-4.59c0-.47,0-.93,0-1.38,0-.23-.05-.31-.29-.31-.76,0-1.52,0-2.27,0-.25,0-.33.08-.29.31,0,0,0,.11,0,.19h2.28V9.25Zm-.57,2.9H13.57v.46h2.82V11.07h-.55ZM3.44,7.57V9.24H3.9V8.48c0-.41,0-.41.4-.42H6.19c.1-.45.07-.49-.35-.49H3.44Zm2.78,4.57H3.9V11.07H3.44v1.54H6.22Z"/><path d="M6.2,17.73V20L.13,15.44v-.06H16.33a1,1,0,0,0,1.18-1s0-.08,0-.14h2.38a7.89,7.89,0,0,1-.14.89A3.48,3.48,0,0,1,17,17.68a3.38,3.38,0,0,1-.78,0H6.2Z"/><path d="M.08,5.76A3.67,3.67,0,0,1,1.87,2.68,3.28,3.28,0,0,1,3.6,2.22H13.8V.05l.07,0,6,4.51v.07H3.57a1,1,0,0,0-1.06.92c0,.21-.12.26-.31.26Z"/></svg>