<svg id="Layer_1" data-name="Layer 1" xmlns="http://www.w3.org/2000/svg" viewBox="0 0 20 20"><defs><style>.cls-1{fill:#333;}</style></defs><title>Artboard 1</title><path class="cls-1" d="M3.11,3.1A9.39,9.39,0,0,1,10,.25,9.39,9.39,0,0,1,16.89,3.1,9.4,9.4,0,0,1,19.75,10a9.38,9.38,0,0,1-2.86,6.89A9.36,9.36,0,0,1,10,19.75a9.36,9.36,0,0,1-6.89-2.86A9.38,9.38,0,0,1,.25,10,9.4,9.4,0,0,1,3.11,3.1Zm13.22.57A8.63,8.63,0,0,0,10,1,8.63,8.63,0,0,0,3.67,3.67,8.62,8.62,0,0,0,1.05,10a8.58,8.58,0,0,0,2.11,5.72,29.1,29.1,0,0,1,4.22-1.5c.09-.07.14-.22.14-.47a2.71,2.71,0,0,0-.19-1.13,6.45,6.45,0,0,1-.42-1.45,4.3,4.3,0,0,1-.66-1.55,2.58,2.58,0,0,1,0-1.31V8.22a4.53,4.53,0,0,0-.14-1.79A2.94,2.94,0,0,1,6.86,4,3.56,3.56,0,0,1,9.58,2.68h.84A3.38,3.38,0,0,1,13.14,4a3,3,0,0,1,.71,2.43,4.17,4.17,0,0,0-.14,1.79.18.18,0,0,1,0,.09,2.84,2.84,0,0,1,0,1.31,3.24,3.24,0,0,1-.65,1.5,5.92,5.92,0,0,1-.43,1.5,3.06,3.06,0,0,0-.28,1.08c0,.31,0,.49.1.52,1.56.47,3,1,4.36,1.5A8.63,8.63,0,0,0,19,10,8.63,8.63,0,0,0,16.33,3.67Z"/></svg>