<svg id="Layer_1" data-name="Layer 1" xmlns="http://www.w3.org/2000/svg" viewBox="0 0 20 20"><title>r-user</title><path d="M2.93,3A9.66,9.66,0,0,1,10,.06,9.66,9.66,0,0,1,17.07,3,9.66,9.66,0,0,1,20,10.06a9.66,9.66,0,0,1-2.93,7.07A9.66,9.66,0,0,1,10,20.06a9.66,9.66,0,0,1-7.07-2.93A9.66,9.66,0,0,1,0,10.06,9.66,9.66,0,0,1,2.93,3Zm13.56.58A8.86,8.86,0,0,0,10,.88,8.86,8.86,0,0,0,3.51,3.57,8.87,8.87,0,0,0,.82,10.06,8.82,8.82,0,0,0,3,15.93a30.64,30.64,0,0,1,4.33-1.54.61.61,0,0,0,.14-.48,2.68,2.68,0,0,0-.19-1.16,7.23,7.23,0,0,1-.43-1.49,4.22,4.22,0,0,1-.68-1.58,2.73,2.73,0,0,1,0-1.35v-.1a4.31,4.31,0,0,0-.14-1.82,3.06,3.06,0,0,1,.72-2.5A3.68,3.68,0,0,1,9.57,2.56h.86a3.47,3.47,0,0,1,2.79,1.35,3.06,3.06,0,0,1,.72,2.5,4.31,4.31,0,0,0-.14,1.82.19.19,0,0,1,0,.1,3.34,3.34,0,0,1,0,1.35,3.38,3.38,0,0,1-.68,1.53,6.21,6.21,0,0,1-.43,1.54,3,3,0,0,0-.29,1.11c0,.32,0,.5.1.53q2.4.72,4.47,1.54a8.82,8.82,0,0,0,2.16-5.87A8.87,8.87,0,0,0,16.49,3.57Z"/></svg>