<svg id="Layer_1" data-name="Layer 1" xmlns="http://www.w3.org/2000/svg" viewBox="0 0 20 20"><title>r-view</title><path d="M10,4.43q4.9,0,10,5.67c-.8.79-1.32,1.29-1.54,1.49s-.77.66-1.63,1.37a11.8,11.8,0,0,1-2.1,1.45,17.14,17.14,0,0,1-2.12.83,8,8,0,0,1-2.61.44,10.58,10.58,0,0,1-2.95-.39,9.12,9.12,0,0,1-2.67-1.36,26.07,26.07,0,0,1-2.1-1.65Q1.52,11.59,0,10.06A30.19,30.19,0,0,1,5.16,5.81,9.09,9.09,0,0,1,10,4.43ZM7.17,12.87a4,4,0,0,0,5.67,0,3.95,3.95,0,0,0,0-5.63A3.87,3.87,0,0,0,10,6.06,3.84,3.84,0,0,0,7.17,7.24a3.92,3.92,0,0,0,0,5.63ZM10,8.65a1.34,1.34,0,0,0,.4,1,1.43,1.43,0,0,0,1,.4,1.6,1.6,0,0,0,.89-.31v.31a2.27,2.27,0,0,1-.67,1.65,2.34,2.34,0,0,1-3.3,0,2.27,2.27,0,0,1-.67-1.65,2.24,2.24,0,0,1,.67-1.65A2.2,2.2,0,0,1,10,7.73h.36A1.43,1.43,0,0,0,10,8.65Z"/></svg>